<?xml version="1.0" encoding="UTF-8" standalone="no"?>
<svg
   width="60mm"
   height="60mm"
   viewBox="0 0 60 60"
   version="1.1"
   id="svg8"
   inkscape:version="1.1.1 (3bf5ae0d25, 2021-09-20)"
   sodipodi:docname="Logo.svg"
   inkscape:export-filename="D:\rsanl\Documents\Engranes industriales\Sitio web\img\Logo.png"
   inkscape:export-xdpi="96"
   inkscape:export-ydpi="96"
   xmlns:inkscape="http://www.inkscape.org/namespaces/inkscape"
   xmlns:sodipodi="http://sodipodi.sourceforge.net/DTD/sodipodi-0.dtd"
   xmlns="http://www.w3.org/2000/svg"
   xmlns:svg="http://www.w3.org/2000/svg"
   xmlns:rdf="http://www.w3.org/1999/02/22-rdf-syntax-ns#"
   xmlns:cc="http://creativecommons.org/ns#"
   xmlns:dc="http://purl.org/dc/elements/1.1/">
  <defs
     id="defs2" />
  <sodipodi:namedview
     id="base"
     pagecolor="#ffffff"
     bordercolor="#666666"
     borderopacity="1.0"
     inkscape:pageopacity="0.0"
     inkscape:pageshadow="2"
     inkscape:zoom="2.8284271"
     inkscape:cx="169.8824"
     inkscape:cy="139.12326"
     inkscape:document-units="mm"
     inkscape:current-layer="layer1"
     inkscape:document-rotation="0"
     showgrid="false"
     inkscape:window-width="1920"
     inkscape:window-height="1009"
     inkscape:window-x="-8"
     inkscape:window-y="-8"
     inkscape:window-maximized="1"
     inkscape:pagecheckerboard="0"
     width="60mm" />
  <metadata
     id="metadata5">
    <rdf:RDF>
      <cc:Work
         rdf:about="">
        <dc:format>image/svg+xml</dc:format>
        <dc:type
           rdf:resource="http://purl.org/dc/dcmitype/StillImage" />
      </cc:Work>
    </rdf:RDF>
  </metadata>
  <g
     inkscape:label="Layer 1"
     inkscape:groupmode="layer"
     id="layer1">
    <g
       id="g1827"
       style="stroke-width:1.25;stroke-miterlimit:4;stroke-dasharray:none"
       transform="matrix(0.39908079,0,0,0.39908079,-12.640216,-22.899372)">
      <g
         id="g1410"
         transform="translate(3.0301635,1.3396065)"
         style="stroke:#a4161a;stroke-width:1.25;stroke-miterlimit:4;stroke-dasharray:none;stroke-opacity:1">
        <g
           id="g1448"
           style="stroke:#a4161a;stroke-width:1.25;stroke-miterlimit:4;stroke-dasharray:none;stroke-opacity:1">
          <g
             id="g901"
             transform="rotate(9,111.32649,78.832011)"
             style="stroke:#a4161a;stroke-width:1.25;stroke-miterlimit:4;stroke-dasharray:none;stroke-opacity:1">
            <g
               id="g1388"
               transform="rotate(2,111.85673,117.34823)"
               style="stroke:#a4161a;stroke-width:1.25;stroke-miterlimit:4;stroke-dasharray:none;stroke-opacity:1">
              <path
                 style="fill:none;stroke:#a4161a;stroke-width:1.25;stroke-linejoin:round;stroke-miterlimit:4;stroke-dasharray:none;stroke-opacity:1"
                 id="path24"
                 sodipodi:type="arc"
                 sodipodi:cx="112.01701"
                 sodipodi:cy="118.30654"
                 sodipodi:rx="14"
                 sodipodi:ry="14"
                 sodipodi:start="4.7764276"
                 sodipodi:end="4.3409883"
                 sodipodi:arc-type="arc"
                 d="m 112.91294,104.33524 a 14,14 0 0 1 13.09001,13.34401 14,14 0 0 1 -11.84286,14.46229 14,14 0 0 1 -15.663348,-10.20151 14,14 0 0 1 8.439378,-16.67897"
                 sodipodi:open="true" />
              <path
                 style="fill:none;stroke:#a4161a;stroke-width:1.25;stroke-linecap:butt;stroke-linejoin:miter;stroke-miterlimit:4;stroke-dasharray:none;stroke-opacity:1"
                 d="m 106.43629,105.98888 -0.43971,-2.82962 7.1823,-1.15025 0.44973,2.83946"
                 id="path1384"
                 sodipodi:nodetypes="cccc" />
            </g>
          </g>
          <path
             style="fill:none;stroke:#a4161a;stroke-width:1.25;stroke-linecap:butt;stroke-linejoin:miter;stroke-miterlimit:4;stroke-dasharray:none;stroke-opacity:1"
             d="m 109.52587,63.056288 c 0,0 3.22559,0.63028 4.30999,4.300382 0.58851,1.991757 1.99207,7.545614 2.25934,8.848552 0.26727,1.302941 1.02735,2.506496 2.13816,2.839741 1.00226,0.300677 2.55422,-0.101386 4.16057,-1.346133 1.59215,-1.233748 5.33855,-4.373699 8.60056,-5.454011 3.16273,-1.04743 5.59445,0.08668 5.59445,0.08668"
             id="path1176"
             sodipodi:nodetypes="csssssc" />
          <path
             style="fill:none;stroke:#a4161a;stroke-width:1.25;stroke-linecap:butt;stroke-linejoin:miter;stroke-miterlimit:4;stroke-dasharray:none;stroke-opacity:1"
             d="m 136.43537,72.231105 c 0,0 2.51023,2.18158 1.6143,5.902182 -0.48622,2.019167 -2.04763,7.530729 -2.46763,8.792742 -0.42001,1.262015 -0.36354,2.684364 0.43183,3.528367 0.71764,0.761524 2.26271,1.189308 4.27622,0.9145 1.99572,-0.272382 6.81017,-1.118459 10.17531,-0.423032 3.26272,0.674263 4.8016,2.872292 4.8016,2.872292"
             id="path1176-3"
             sodipodi:nodetypes="csssssc" />
          <path
             style="fill:none;stroke:#a4161a;stroke-width:1.25;stroke-linecap:butt;stroke-linejoin:miter;stroke-miterlimit:4;stroke-dasharray:none;stroke-opacity:1"
             d="m 155.20017,93.692861 c 0,0 1.06717,3.105978 -1.56903,5.880155 -1.43066,1.505544 -5.53866,5.497984 -6.5334,6.380924 -0.99475,0.88293 -1.65701,2.14295 -1.39021,3.27157 0.24074,1.01832 1.36491,2.16133 3.24607,2.93009 1.86453,0.76197 6.45701,2.43647 9.02359,4.7213 2.48847,2.21529 2.72216,4.88828 2.72216,4.88828"
             id="path1176-3-5"
             sodipodi:nodetypes="csssssc" />
          <path
             style="fill:none;stroke:#a4161a;stroke-width:1.25;stroke-linecap:butt;stroke-linejoin:miter;stroke-miterlimit:4;stroke-dasharray:none;stroke-opacity:1"
             d="m 160.7077,121.61484 c 0,0 -0.63238,3.23188 -4.30248,4.31628 -1.99176,0.58851 -7.54562,1.99207 -8.84855,2.25935 -1.30294,0.26726 -2.5065,1.02734 -2.83974,2.13816 -0.30068,1.00224 0.10138,2.55421 1.34612,4.16056 1.23376,1.59215 4.37371,5.33855 5.45402,8.60056 1.04743,3.16274 -0.0867,5.59446 -0.0867,5.59446"
             id="path1176-3-1"
             sodipodi:nodetypes="csssssc" />
          <path
             style="fill:none;stroke:#a4161a;stroke-width:1.25;stroke-linecap:butt;stroke-linejoin:miter;stroke-miterlimit:4;stroke-dasharray:none;stroke-opacity:1"
             d="m 151.50972,148.56102 c 0,0 -2.16055,2.47986 -5.88115,1.58393 -2.01917,-0.48621 -7.53073,-2.04762 -8.79274,-2.46762 -1.26201,-0.42001 -2.68437,-0.36355 -3.52837,0.43183 -0.76152,0.71763 -1.18931,2.2627 -0.91451,4.27621 0.2724,1.99573 1.11847,6.81018 0.42304,10.17532 -0.67427,3.26273 -2.87231,4.80159 -2.87231,4.80159"
             id="path1176-3-1-6"
             sodipodi:nodetypes="csssssc" />
          <path
             style="fill:none;stroke:#a4161a;stroke-width:1.25;stroke-linecap:butt;stroke-linejoin:miter;stroke-miterlimit:4;stroke-dasharray:none;stroke-opacity:1"
             d="m 130.06952,167.3011 c 0,0 -3.10645,1.06149 -5.88062,-1.57471 -1.50555,-1.43065 -5.498,-5.53865 -6.38093,-6.53339 -0.88293,-0.99474 -2.14296,-1.65703 -3.27157,-1.39021 -1.01831,0.24073 -2.16133,1.3649 -2.9301,3.24605 -0.76196,1.86456 -2.43646,6.45703 -4.72129,9.02361 -2.2153,2.48847 -4.88829,2.72214 -4.88829,2.72214"
             id="path1176-3-1-6-2"
             sodipodi:nodetypes="csssssc" />
          <path
             style="fill:none;stroke:#a4161a;stroke-width:1.25;stroke-linecap:butt;stroke-linejoin:miter;stroke-miterlimit:4;stroke-dasharray:none;stroke-opacity:1"
             d="m 101.99672,172.79459 c 0,0 -3.08153,-0.62404 -4.16593,-4.29414 -0.58852,-1.99175 -1.99208,-7.54561 -2.25935,-8.84854 -0.26727,-1.30294 -1.02734,-2.50651 -2.138159,-2.83974 -1.002248,-0.30068 -2.554217,0.10137 -4.160566,1.34611 -1.592157,1.23377 -5.338552,4.37372 -8.600562,5.45403 -3.162741,1.04743 -5.594454,-0.0867 -5.594454,-0.0867"
             id="path1176-3-1-6-2-4"
             sodipodi:nodetypes="csssssc" />
          <path
             style="fill:none;stroke:#a4161a;stroke-width:1.25;stroke-linecap:butt;stroke-linejoin:miter;stroke-miterlimit:4;stroke-dasharray:none;stroke-opacity:1"
             d="m 75.077723,163.52566 c 0,0 -2.356663,-2.0812 -1.460731,-5.8018 0.486202,-2.01916 2.047613,-7.53072 2.467616,-8.79273 0.420007,-1.26201 0.363552,-2.68437 -0.43183,-3.52837 -0.717633,-0.76152 -2.262702,-1.18932 -4.276211,-0.91451 -1.995734,0.27239 -6.810182,1.11847 -10.17532,0.42304 -3.262729,-0.67427 -4.80159,-2.87231 -4.80159,-2.87231"
             id="path1176-3-1-6-2-4-4"
             sodipodi:nodetypes="csssssc" />
          <path
             style="fill:none;stroke:#a4161a;stroke-width:1.25;stroke-linecap:butt;stroke-linejoin:miter;stroke-miterlimit:4;stroke-dasharray:none;stroke-opacity:1"
             d="m 56.462702,142.16404 c 0,0 -1.063375,-3.10576 1.572825,-5.87993 1.430643,-1.50554 5.538645,-5.49799 6.533383,-6.38092 0.994742,-0.88293 1.65703,-2.14296 1.390209,-3.27157 -0.240728,-1.01832 -1.364897,-2.16134 -3.246052,-2.9301 -1.864552,-0.76197 -6.457025,-2.43646 -9.023605,-4.72129 -2.488472,-2.2153 -2.722145,-4.88829 -2.722145,-4.88829"
             id="path1176-3-1-6-2-4-4-4"
             sodipodi:nodetypes="csssssc" />
          <path
             style="fill:none;stroke:#a4161a;stroke-width:1.25;stroke-linecap:butt;stroke-linejoin:miter;stroke-miterlimit:4;stroke-dasharray:none;stroke-opacity:1"
             d="m 50.961078,114.23771 c 0,0 0.63024,-3.22726 4.300341,-4.31166 1.991744,-0.58851 7.545603,-1.99207 8.848536,-2.25935 1.302937,-0.26726 2.50651,-1.02734 2.839741,-2.13815 0.300684,-1.00226 -0.101365,-2.55423 -1.346113,-4.16057 -1.233765,-1.59216 -4.373718,-5.33855 -5.454026,-8.60056 -1.04743,-3.162742 0.0867,-5.594456 0.0867,-5.594456"
             id="path1176-3-1-6-2-4-4-4-2"
             sodipodi:nodetypes="csssssc" />
          <path
             style="fill:none;stroke:#a4161a;stroke-width:1.25;stroke-linecap:butt;stroke-linejoin:miter;stroke-miterlimit:4;stroke-dasharray:none;stroke-opacity:1"
             d="m 60.155642,87.29492 c 0,0 2.161813,-2.478619 5.882414,-1.582686 2.019156,0.486207 7.530719,2.047618 8.792732,2.467613 1.262006,0.420015 2.684371,0.363553 3.528363,-0.431822 0.76153,-0.71764 1.18933,-2.26271 0.914517,-4.276215 -0.272392,-1.995734 -1.118476,-6.810179 -0.423045,-10.175317 0.67427,-3.26273 2.872312,-4.801591 2.872312,-4.801591"
             id="path1176-3-1-6-2-4-4-4-2-6"
             sodipodi:nodetypes="csssssc" />
          <path
             style="fill:none;stroke:#a4161a;stroke-width:1.25;stroke-linecap:butt;stroke-linejoin:miter;stroke-miterlimit:4;stroke-dasharray:none;stroke-opacity:1"
             d="m 81.598874,68.557934 c 0,0 3.104725,-1.063376 5.878894,1.572825 1.505537,1.430645 5.497985,5.538648 6.380922,6.533381 0.882924,0.994748 2.142955,1.65703 3.271559,1.39021 1.018324,-0.240729 2.161345,-1.364899 2.930111,-3.24605 0.76197,-1.864552 2.43646,-6.457023 4.72129,-9.023603 2.2153,-2.488472 4.88829,-2.722145 4.88829,-2.722145"
             id="path1176-3-1-6-2-4-4-4-2-6-9"
             sodipodi:nodetypes="csssssc" />
        </g>
      </g>
      <path
         style="fill:#ffffff;stroke:#000000;stroke-width:1.25;stroke-linecap:butt;stroke-linejoin:miter;stroke-miterlimit:4;stroke-dasharray:none;stroke-opacity:1"
         d="m 86.805801,167.82855 c 0.517565,-0.89792 1.03901,-2.84975 0.838559,-4.30303 -0.200454,-1.45328 -1.516755,-6.03695 -2.903217,-7.70739 -1.386459,-1.67043 -3.00678,-4.14267 -6.681737,-4.02574 -3.674957,0.11693 -7.099348,1.63702 -9.304321,3.95893 -2.204974,2.3219 -2.372017,7.46684 -2.422129,8.01808 -0.05011,0.55124 -1.002262,1.38646 -1.770663,2.17157 -0.768397,0.7851 -1.23612,3.99234 -0.467719,5.47902 0.7684,1.48669 5.453043,3.13414 7.815397,3.51211 2.362351,0.37798 5.268042,0.82683 6.945312,-0.3071 1.677268,-1.13393 5.975574,-3.37014 7.950518,-6.79645 z"
         id="path1392"
         sodipodi:nodetypes="sssssssssss" />
      <g
         id="g1418"
         style="fill:#ffffff;stroke-width:1.25;stroke-miterlimit:4;stroke-dasharray:none">
        <path
           style="fill:#ffffff;stroke:#000000;stroke-width:1.25;stroke-linecap:butt;stroke-linejoin:miter;stroke-miterlimit:4;stroke-dasharray:none;stroke-opacity:1"
           d="m 77.579613,151.63932 c 0,0 0.118118,-9.73288 -0.283482,-10.6542 -0.401601,-0.92132 -2.220611,-1.46466 -3.236421,-1.25205 -1.015812,0.21261 -1.771763,1.08668 -1.771763,1.58278 0,0.49609 0.188986,1.32291 1.015809,1.60639 0.826823,0.28349 2.834823,0.63784 2.787576,2.43323 -0.04725,1.79539 -0.472472,6.61458 -0.472472,6.61458"
           id="path1412" />
        <path
           style="fill:#ffffff;stroke:#000000;stroke-width:1.25;stroke-linecap:butt;stroke-linejoin:miter;stroke-miterlimit:4;stroke-dasharray:none;stroke-opacity:1"
           d="m 75.61886,151.97005 1.960753,-0.33073"
           id="path1414" />
      </g>
      <path
         style="fill:#ffffff;stroke:#000000;stroke-width:1.25;stroke-linecap:butt;stroke-linejoin:miter;stroke-miterlimit:4;stroke-dasharray:none;stroke-opacity:1"
         d="m 74.969102,152.09306 c 0,0 -4.510172,-5.82981 -5.863225,-6.81537 -1.353053,-0.98555 -2.238383,-1.58691 -3.257349,-1.57021 -1.018963,0.0167 -2.088041,0.0835 -2.906556,0.51784 -0.818513,0.43431 -1.775203,1.98662 -1.123735,2.87196 0.65147,0.88533 2.109292,1.12542 3.044737,0.55747 0.935442,-0.56795 2.250541,-1.66995 3.28621,-1.01848 1.035669,0.65147 4.539241,6.29418 4.539241,6.29418 z"
         id="path1420"
         sodipodi:nodetypes="csssssscc" />
      <path
         style="fill:#ffffff;stroke:#000000;stroke-width:1.25;stroke-linecap:butt;stroke-linejoin:miter;stroke-miterlimit:4;stroke-dasharray:none;stroke-opacity:1"
         d="m 79.186012,174.41239 c 0,0 3.779761,-2.62221 4.464844,-3.26005 0.68508,-0.63783 3.042962,-2.83019 3.519903,-3.66164 0.476941,-0.83145 2.338726,-1.2048 3.921503,-0.11812 1.582775,1.08668 3.685268,2.74033 4.25223,5.00818 0.566965,2.26786 0.448847,3.6144 -0.118115,4.77195 -0.566965,1.15756 -5.031809,9.89826 -5.646021,10.58334 -0.614211,0.68508 -3.590774,1.96075 -5.693267,0.96856 -2.102493,-0.99219 -2.286362,-0.89766 -2.70397,-0.73061 -0.41761,0.16704 -0.868627,1.1526 -0.952148,2.13815 -0.08352,0.98556 -0.183748,4.27632 0.35079,5.07812 0.53454,0.80181 3.190531,1.5368 2.57247,3.00679 -0.618062,1.46998 -1.219417,1.70384 -2.288495,1.73725 -1.069078,0.0334 -3.624649,-0.0562 -3.900334,-0.22114 -0.218097,-0.13052 -0.448848,0.14174 -0.354354,-3.42541 0.0945,-3.56715 0.362574,-11.5377 0.462801,-13.97653 0.100227,-2.43884 0.133636,-4.94449 0.567947,-6.04698 0.434313,-1.10248 1.544216,-1.85186 1.544216,-1.85186 z"
         id="path1422"
         sodipodi:nodetypes="cssssssssssssssssc" />
      <ellipse
         style="opacity:0.999;fill:#ffffff;stroke:#000000;stroke-width:1.25;stroke-linejoin:round;stroke-miterlimit:4;stroke-dasharray:none;stroke-opacity:1"
         id="path1390"
         cx="72.196175"
         cy="162.43306"
         rx="1.1693041"
         ry="2.2049735" />
      <path
         style="fill:#ffffff;stroke:#000000;stroke-width:1.25;stroke-linecap:butt;stroke-linejoin:miter;stroke-miterlimit:4;stroke-dasharray:none;stroke-opacity:1"
         d="m 77.437871,176.08966 c 0,0 -2.740327,0.94494 -3.212799,2.97656 -0.472469,2.03162 -1.700892,5.05543 -4.441219,6.14211 -2.740326,1.08668 -7.843006,3.11831 -9.02418,6.14212 -1.181177,3.0238 -1.700893,5.05543 -1.322917,6.66183 0.377976,1.60639 1.889879,1.32291 2.504091,0.0945 0.614211,-1.22843 1.322916,-5.71689 3.874256,-7.46503 2.55134,-1.74814 6.709077,-2.03162 7.654018,-2.03162 0.944941,0 3.401785,-1.37017 3.401785,-1.37017 z"
         id="path1424" />
      <path
         style="fill:#ffffff;stroke:#000000;stroke-width:1.25;stroke-linecap:butt;stroke-linejoin:miter;stroke-miterlimit:4;stroke-dasharray:none;stroke-opacity:1"
         d="m 89.936195,187.35594 c 0,0 4.744034,-9.12058 5.044712,-9.72193 0.300678,-0.60136 0.835218,-1.97112 1.503392,-2.83974 0.668173,-0.86863 3.407685,-1.9377 4.677221,-1.80407 1.26952,0.13363 4.91107,0.0668 6.28083,1.70384 1.36976,1.63703 2.23838,2.93997 2.3052,5.21176 0.0668,2.27179 -0.63477,6.74855 -1.67043,7.88445 -1.03567,1.13589 -3.14042,2.07134 -5.44562,1.70384 -2.3052,-0.36749 -2.83974,-0.83521 -4.877672,-0.80181 -2.03793,0.0334 -3.307459,1.00227 -4.009041,2.87315 -0.701583,1.87089 -1.069078,3.47451 -0.734991,4.07586 0.334086,0.60136 2.806329,0.53454 3.240643,1.67044 0.434311,1.13589 0.400902,2.67269 -0.367496,3.0736 -0.7684,0.4009 -5.011304,0.10022 -5.34539,0.10022 -0.33409,0 -0.902036,-0.10022 -1.102487,-0.90203 -0.200454,-0.80181 0.133633,-6.98242 0.200451,-8.41899 0.06682,-1.43658 0.300678,-3.80859 0.300678,-3.80859 z"
         id="path1426" />
      <path
         style="fill:#ffffff;stroke:#000000;stroke-width:1.25;stroke-linecap:butt;stroke-linejoin:miter;stroke-miterlimit:4;stroke-dasharray:none;stroke-opacity:1"
         d="m 105.1955,189.46057 c 0,0 0.82682,6.56733 0,7.55952 -0.82682,0.99219 -1.32292,1.32291 -1.98438,1.58277 -0.66145,0.25986 -1.41741,0.25986 -1.81901,0.8032 -0.4016,0.54334 -0.18899,1.79539 0.42523,2.07887 0.61421,0.28348 2.45684,0.49609 3.18917,0.11812 0.73233,-0.37798 2.48047,-1.39379 2.48047,-3.2128 0,-1.81901 -0.23624,-9.70927 -0.23624,-9.70927 z"
         id="path1428"
         sodipodi:nodetypes="csssssscc" />
      <path
         style="fill:#ffffff;stroke:#000000;stroke-width:1.25;stroke-linecap:butt;stroke-linejoin:miter;stroke-miterlimit:4;stroke-dasharray:none;stroke-opacity:1"
         d="m 109.71414,180.77443 c 0,0 -0.20045,-1.80407 1.9043,-3.27406 2.10474,-1.46998 7.51695,-4.91107 10.25646,-5.7797 2.73952,-0.86863 7.71741,-1.5368 10.05602,-0.86863 2.33861,0.66818 7.01583,3.27405 8.8533,4.71063 1.83748,1.43657 3.00678,2.50565 4.81085,2.43883 1.80407,-0.0668 5.3788,-1.43657 5.3788,-1.43657 0,0 -5.98015,15.7689 -9.08716,18.27455 -3.10701,2.50566 -9.35444,4.30973 -13.4637,4.14268 -4.10927,-0.16704 -10.08943,-1.5368 -12.99598,-4.17608 -2.90656,-2.63929 -5.67948,-5.34539 -6.04698,-6.98242 -0.36749,-1.63703 0.33409,-7.04923 0.33409,-7.04923 z"
         id="path1430" />
    </g>
  </g>
</svg>
